<?xml version="1.0" encoding="utf-8"?>
<!-- Generator: Adobe Illustrator 21.0.0, SVG Export Plug-In . SVG Version: 6.00 Build 0)  -->
<!DOCTYPE svg PUBLIC "-//W3C//DTD SVG 1.1//EN" "http://www.w3.org/Graphics/SVG/1.1/DTD/svg11.dtd">
<svg version="1.1" id="Layer_1" xmlns="http://www.w3.org/2000/svg" xmlns:xlink="http://www.w3.org/1999/xlink" x="0px" y="0px"
	 viewBox="0 0 269.9 354.2" style="enable-background:new 0 0 269.9 354.2;" xml:space="preserve">
<style type="text/css">
	.st0{fill:#D3912F;stroke:#000000;stroke-width:5.1731;stroke-linecap:round;stroke-linejoin:round;stroke-miterlimit:10;}
	.st1{fill:#D3912F;stroke:#D3912F;stroke-width:7.8974;stroke-linecap:round;stroke-linejoin:round;stroke-miterlimit:10;}
	.st2{fill:#FFFFFF;}
	.st3{fill:none;stroke:#000000;stroke-width:5.1731;stroke-linecap:round;stroke-linejoin:round;stroke-miterlimit:10;}
	.st4{fill:#D3912F;
    animation: swing .3s infinite ease-in-out;}
    
	.st5{fill:none;stroke:#000000;stroke-width:5.6756;stroke-linecap:round;stroke-linejoin:round;stroke-miterlimit:10;
    animation: swing .3s infinite ease-in-out;}
    
	.st6{fill:none;stroke:#000000;stroke-width:5.6756;stroke-linecap:round;stroke-miterlimit:10;
    animation: swing .3s infinite ease-in-out;}
    
    #leftFoot {
        animation: swing2 5s infinite ease-in-out;
    }
    
    #rightFoot{
    animation: antiswing2 5s infinite ease-in-out;
    }
    
    @keyframes antiswing2 {
        0%, 100% { transform: rotate(.3deg); }
        50% { transform: rotate(-.3deg); }
    }
    
    @keyframes swing2 {
        0%, 100% { transform: rotate(-.3deg); }
        50% { transform: rotate(.3deg); }
    }
    
    @keyframes swing {
        0%, 100% { transform: rotate(-.15deg); }
        50% { transform: rotate(.15deg); }
    }
</style>
<path class="st0" d="M64,172.1c-1,1.1-3,0.3-3.5-1.1c-0.7-1.7,1.4-5.5-1.7-5c-0.8,0.1-1.6,0.2-2.4-0.1c-4.5-1.8,0.4-9.4,3.9-9.5
	c-1.2-0.2-2.5-0.5-3.5-1.3s-1.7-2-1.6-3.2c0.2-2.1,3.3-3.2,5.1-3.5c0.5-0.1,1.1-0.1,1.6-0.3c2.5-0.7,3-3.8,1.3-5.6
	c-1.2-1.1-2.9-1.8-4.1-3.1c-1.9-2-2.1-5.1-2-7.9c0.3-17.4,4.4-34.8,11.8-50.5c-1,2,13.1,15.6,14.6,17.4c6.4,7.4,12.5,15,18.5,22.7
	c6-4.1,15.3-7.5,22.4-9.1c19.3-4.4,37.6-0.4,55.5,7c0.6,0.3,1.3,0.5,1.9,0.8c3.5-8.1,6.9-16.2,10.4-24.2c1.5-3.6,2.9-7.4,4.7-10.9
	c1.4-2.6,2-3.2,4.5-1.1c7.2,5.9,11.4,14.9,13.7,23.8c0.4,1.5,0.7,2.9,0.9,4.4c1.4,7.7,1.7,15.6,2.2,23.4c0.2,3.3-0.4,9,1.1,12
	c1.7,3.4,5,0.3,8.5,1.7c0.4,0.1,0.8,0.3,1,0.7c0.2,0.3,0.2,0.7,0.2,1.1c0,0.7,0,1.4,0,2.1c0,0.4,0,0.9-0.2,1.2s-0.5,0.5-0.9,0.7
	c-1.1,0.6-2.1,1.3-3.2,1.9c1.7-0.2,3.5,0.5,4.6,1.8s1.4,3.2,0.9,4.8c-1.2,3.5-5.1,5.8-6.7,9.2"/>
<path class="st1" d="M158.4,151.8c6.1-5,12.1-9.9,18.2-14.9c-6-0.1-12-0.2-17.9-0.4c4.5-5.5,9-11.1,13.5-16.6
	c-0.6,0.7-10.3-1.6-11.5-1.7c-4.4-0.7-8.8-1.3-13.2-2c-5.3-0.8-10.4-2-15.7-1.2c-8.1,1.1-15.9,4.6-22.1,9.9c-1.2,1-2.3,2-3.1,3.3
	c-0.6,0.9-1,2-1.4,3c-2.5,6.3-5.1,12.7-7.6,19"/>
<polyline class="st2" points="145.2,111.5 151.5,123.1 145.2,120.4 148.3,130.2 135.9,126.5 130,128 130,111.5 "/>
<path class="st3" d="M64,172.1c-1,1.1-3,0.3-3.5-1.1c-0.7-1.7,1.4-5.5-1.7-5c-0.8,0.1-1.6,0.2-2.4-0.1c-4.5-1.8,0.4-9.4,3.9-9.5
	c-1.2-0.2-2.5-0.5-3.5-1.3s-1.7-2-1.6-3.2c0.2-2.1,3.3-3.2,5.1-3.5c0.5-0.1,1.1-0.1,1.6-0.3c2.5-0.7,3-3.8,1.3-5.6
	c-1.2-1.1-2.9-1.8-4.1-3.1c-1.9-2-2.1-5.1-2-7.9c0.3-17.4,4.4-34.8,11.8-50.5c-1,2,13.1,15.6,14.6,17.4c6.4,7.4,12.5,15,18.5,22.7
	c6-4.1,15.3-7.5,22.4-9.1c19.3-4.4,37.6-0.4,55.5,7c0.6,0.3,1.3,0.5,1.9,0.8c3.5-8.1,6.9-16.2,10.4-24.2c1.5-3.6,2.9-7.4,4.7-10.9
	c1.4-2.6,2-3.2,4.5-1.1c7.2,5.9,11.4,14.9,13.7,23.8c0.4,1.5,0.7,2.9,0.9,4.4c1.4,7.7,1.7,15.6,2.2,23.4c0.2,3.3-0.4,9,1.1,12
	c1.7,3.4,5,0.3,8.5,1.7c0.4,0.1,0.8,0.3,1,0.7c0.2,0.3,0.2,0.7,0.2,1.1c0,0.7,0,1.4,0,2.1c0,0.4,0,0.9-0.2,1.2s-0.5,0.5-0.9,0.7
	c-1.1,0.6-2.1,1.3-3.2,1.9c1.7-0.2,3.5,0.5,4.6,1.8s1.4,3.2,0.9,4.8c-1.2,3.5-5.1,5.8-6.7,9.2"/>
<path class="st2" d="M24.4,308.2c0,0-9.4-8.7-15.8-24.1C0,263.5-3.1,230.7,29.5,190.5c56.8-70.1,161.3-36.9,161.3-36.9
	s68.1,31.2,76.3,97.3c0,0,2,35.3-22,57.3c-24.1,22-70.7,24.1-98.3,12.3l-24.6,0.5C122.2,321,81.2,344.6,24.4,308.2z"/>
<g>
	<path class="st4" d="M112.4,206.8c0,0-0.4-0.1-1.2-0.4c-9.6-2.7-72.8-0.7-58.9,93.1l-27.9,8.6l-15.8-24l0.8-39.7l38.1-62.8
		l103.7-2.7l82.4,12.8l27.7,65l2.6,12l-2.6,15.1l-21,28.6l-11.8-9.4l-19-3.3c0,0,25.5-101.9-64.1-94"/>
	<polyline class="st4" points="112,206.7 120.3,218.2 123.3,208.1 135,225.4 149.8,205.3 153,213.5 165.1,205.3 172,197.4 
		114.9,197.4 	"/>
</g>
<path class="st4" d="M8.9,281.8c-1.1-2,0.6-7.9,0.9-10c1.2-8.2,3.2-16.4,6.2-24.2c8.9-23.5,25.9-40.9,48.9-50.9
	c12.9-5.6,27.6-6.9,41.4-4.1c2,0.4,4.1,0.9,5.8,2c3.7,2.2,5.9,6.2,7.9,10.1c0.8-3.8,1.5-7.5,2.3-11.3c-0.7,2.6,10.6,15,12.6,17.7
	l15.2-18.8l3.5,9.7l11.8-8.6c0,0,77-5.7,98.1,76.9c0,0,18.9-60.3-59.7-108.6c-26.7-16.4-50.9-16.2-72.5-16
	c-58.2,0.4-95.7,38.4-95.7,38.4S-15.3,234.9,8.9,281.8z"/>
<path class="st5" d="M24.4,308.2c0,0-9.4-8.7-15.8-24.1C0,263.5-3.1,230.7,29.5,190.5c19.2-23.7,47-37.3,76.8-42
	c30.6-4.9,63.8-4.1,92,10c13.6,6.8,24.9,16.2,35.4,27.1c16.8,17.3,31.9,40.6,33.4,65.5c0,0,2,35.3-22,57.3
	c-24.1,22-70.7,24.1-98.3,12.3l-24.6,0.5C122.2,321,81.2,344.6,24.4,308.2z"/>
<path class="st6" d="M107.7,307.6c0,0,21.2,25.7,56.3,2.4"/>
<g id="leftFoot">
	<path class="st2" d="M74,308.6l-21.7-9c-7,0.1-12.7-0.4-19,3.3c-4.4,2.5-8.1,6-11.8,9.4c-2.7,2.5-5.4,5.1-7.3,8.2
		c-3.6,6-2.4,13,1.8,18.4c7,9,18.8,12.6,29.8,12c6.5-0.4,15.1-1.1,20.7-4.6c5.8-3.6,8.5-10.7,9-17.5S74.5,315.4,74,308.6z"/>
	<g>
		<path d="M77.5,315.1c-0.3-2.2-0.6-4.4-0.7-6.7c-0.1-1.6-1.5-2.7-3-2.6c-1.6,0.1-2.7,1.5-2.6,3c0.2,2.4,0.5,4.7,0.7,6.9
			c0.5,4.4,1.1,8.6,0.8,12.8c-0.2,3.3-1.5,11.5-7.7,15.3c-5.3,3.3-14.5,3.9-19.4,4.2c-11.4,0.6-21.6-3.5-27.4-10.9
			c-3.8-4.9-4.4-10.6-1.6-15.2c1.7-2.8,4.2-5.2,6.8-7.6l0.6-0.6c3.5-3.2,6.8-6.2,10.7-8.4c4.9-2.9,9.3-2.9,15-2.9c0.8,0,1.7,0,2.6,0
			c1.6,0,2.8-1.3,2.8-2.9c0-1.6-1.3-2.8-2.9-2.8c-0.9,0-1.7,0-2.5,0c-6,0-11.7,0-17.8,3.7c-4.4,2.5-8.1,5.9-11.7,9.2l-0.6,0.6
			c-2.9,2.7-5.7,5.4-7.8,8.8c-4,6.6-3.2,14.9,2,21.6c6.5,8.3,17.4,13.2,29.7,13.2c0.8,0,1.7,0,2.6-0.1c7.5-0.5,16-1.3,22-5
			c5.9-3.7,9.7-10.9,10.3-19.7C78.7,324.2,78.1,319.6,77.5,315.1z"/>
		<circle cx="53.4" cy="334.7" r="6.2"/>
		<ellipse transform="matrix(0.3296 -0.9441 0.9441 0.3296 -289.1227 257.5392)" cx="36.8" cy="332.4" rx="6.2" ry="5"/>
		<ellipse transform="matrix(0.7071 -0.7071 0.7071 0.7071 -222.2917 113.3022)" cx="25.6" cy="325" rx="5.8" ry="3.9"/>
		<path d="M49.7,310c-0.3-0.2-0.7-0.4-1.1-0.5c-0.3-0.1-0.6-0.3-0.8-0.4c-0.6-1.2-1.6-2.3-3-2.9c-2.9-1.4-6.2-0.4-7.5,2.2
			c-0.9,2-0.4,4.3,1.2,5.9c-0.1,0.5-0.1,1-0.1,1.5c-0.2,3.3,0.8,5.1,4.2,6.7c3.3,1.5,5.3,0.7,8.2-2c0.1-0.1,0.1-0.1,0.2-0.2
			c2.5,0.5,4.9-0.5,5.9-2.7c1.2-2.6-0.1-5.8-3-7.2C52.6,309.7,51.1,309.6,49.7,310z"/>
	</g>
</g>
<g id="rightFoot">
	<path class="st2" d="M247.6,320.5c-1.9-3.1-4.6-5.7-7.3-8.2c-3.7-3.4-7.4-6.9-11.8-9.4c-6.3-3.7-12-3.2-19-3.3l-21.7,8.9
		c-0.6,6.8-2,13.5-1.5,20.3s3.2,13.9,9,17.5c5.6,3.5,14.2,4.2,20.7,4.6c11,0.6,22.8-3,29.8-12C250,333.5,251.2,326.5,247.6,320.5z"
		/>
	<g>
		<path d="M250,319c-2.1-3.4-4.9-6.1-7.8-8.8l-0.6-0.6c-3.6-3.3-7.2-6.7-11.6-9.2c-6.2-3.6-11.9-3.6-17.9-3.7c-0.8,0-1.7,0-2.5,0
			c0,0,0,0,0,0c-1.5,0-2.8,1.2-2.8,2.8c0,1.6,1.2,2.9,2.8,2.9c0.9,0,1.7,0,2.6,0c5.7,0,10.2,0,15.1,2.9c3.9,2.2,7.2,5.2,10.6,8.4
			l0.6,0.6c2.6,2.4,5.1,4.8,6.8,7.6c2.8,4.6,2.2,10.3-1.6,15.2c-5.8,7.4-16,11.5-27.4,10.9c-4.9-0.3-14.1-0.9-19.4-4.2
			c-6.2-3.8-7.4-12-7.7-15.3c-0.3-4.5,0.2-9,0.8-13.7c0.2-2,0.5-4.1,0.7-6.2c0.1-1.6-1-2.9-2.6-3.1c-1.6-0.1-2.9,1-3.1,2.6
			c-0.2,2-0.4,4-0.7,6c-0.6,4.8-1.2,9.7-0.8,14.8c0.7,8.8,4.4,16,10.3,19.7c6,3.8,14.5,4.6,22,5c0.9,0,1.7,0.1,2.6,0.1
			c12.2,0,23.2-4.8,29.6-13.2C253.2,333.9,254,325.7,250,319z"/>
		<circle cx="208.4" cy="334.7" r="6.2"/>
		<ellipse transform="matrix(0.9441 -0.3296 0.3296 0.9441 -96.9594 92.6971)" cx="224.9" cy="332.3" rx="5" ry="6.2"/>
		<ellipse transform="matrix(0.7071 -0.7071 0.7071 0.7071 -160.6093 262.2049)" cx="236.2" cy="325" rx="3.9" ry="5.8"/>
		<path d="M210.7,320.3c0.1,0.1,0.1,0.1,0.2,0.2c2.9,2.7,4.9,3.5,8.2,2c3.4-1.6,4.4-3.4,4.2-6.7c0-0.5-0.1-1.1-0.1-1.6
			c1.6-1.6,2.1-3.9,1.2-5.9c-1.2-2.6-4.6-3.6-7.5-2.2c-1.5,0.7-2.5,1.8-3.1,3.2c-0.2,0.1-0.4,0.2-0.6,0.3c-0.4,0.2-0.7,0.3-1,0.5
			c-1.4-0.4-2.9-0.3-4.4,0.4c-2.9,1.4-4.2,4.6-3,7.2C205.8,319.7,208.2,320.8,210.7,320.3z"/>
	</g>
</g>
<path class="st4" d="M94.9,194.9"/>
<polyline class="st5" points="110.3,199.2 120.9,217.1 123,208.1 135.2,226.3 150.1,207.4 153.7,217.1 163.4,204.3 "/>
</svg>
